<svg xmlns="http://www.w3.org/2000/svg" width="1510" height="1024" shape-rendering="geometricPrecision" text-rendering="geometricPrecision" image-rendering="optimizeQuality" fill-rule="evenodd" clip-rule="evenodd"><defs><style>.fil0{fill:#fff}</style></defs><g id="Слой_x0020_1"><g id="_2640146523952"><path class="fil0" d="M719.173 603.464l6.985 19.898.212.211.423.212 8.467 2.329.212.211.423-.211 11.643-5.927.423-.212v-.423l-.635-17.147h-1.482l.423 17.147.424-.847-11.642 5.927h.635l-8.468-2.329.424.424-6.986-19.686z"/><path class="fil0" d="M732.932 608.756l1.693 16.723 1.694-.212-1.694-16.723z"/><path class="fil0" d="M734.625 608.756c.635 1.27 2.117 3.175 4.234 3.81 1.481.424 2.751.424 4.022-.423 1.058-.424 1.693-1.482 2.116-2.54.635-2.117 0-4.445-.634-5.927l-1.482.846c.635 1.059 1.058 3.175.635 4.657-.212.635-.635 1.27-1.482 1.694-.847.423-1.694.423-2.54.211-1.694-.423-2.964-2.116-3.387-2.963l-1.482.635zm-11.219-4.657c-.847-2.964-.211-6.139 1.693-6.774.847-.423 1.906-.211 2.964.212 1.059.423 2.117 1.482 2.54 2.963l1.482-.635c-.635-1.693-1.905-2.963-3.387-3.81-1.27-.635-2.752-.635-4.234-.211-2.963 1.058-3.598 5.503-2.54 8.678l1.482-.423z"/><path class="fil0" d="M733.567 609.603l13.759-7.198-14.606-4.233-13.759 5.292z"/><path fill="none" d="M733.567 609.603l13.759-7.198-14.606-4.233-13.759 5.292 14.606 6.139"/></g></g></svg>